<?xml version="1.0" standalone="no"?><!DOCTYPE svg PUBLIC "-//W3C//DTD SVG 1.1//EN" "http://www.w3.org/Graphics/SVG/1.1/DTD/svg11.dtd"><svg class="icon" width="200px" height="200.00px" viewBox="0 0 1024 1024" version="1.1" xmlns="http://www.w3.org/2000/svg"><path d="M512.006012 0C229.238837 0 0 229.226813 0 511.993988s229.226813 512.006012 512.006012 512.006012c282.779199 0 511.993988-229.226813 511.993988-512.006012S794.78521 0 512.006012 0z m0.024047 913.552714a80.316555 80.316555 0 0 1-80.316555-80.340601 80.316555 80.316555 0 0 1 160.609062 0 80.292508 80.292508 0 0 1-80.292507 80.340601z m50.306057-287.889159c-4.617 66.802212-96.031186 66.802212-100.648185 0-10.015522-144.990618-20.019021-289.945167-29.998474-434.911738a80.316555 80.316555 0 1 1 160.621086 0 595936.450503 595936.450503 0 0 1-29.974427 434.911738z"  /></svg>
