<?xml version="1.0" standalone="no"?><!DOCTYPE svg PUBLIC "-//W3C//DTD SVG 1.1//EN" "http://www.w3.org/Graphics/SVG/1.1/DTD/svg11.dtd"><svg class="icon" width="200px" height="160.00px" viewBox="0 0 1280 1024" version="1.1" xmlns="http://www.w3.org/2000/svg"><path d="M297.813333 498.346667c-21.76-15.786667-39.253333-6.4-39.253333 21.333333l0 108.373333-221.44 31.146667C16.213333 662.613333 0 681.386667 0 704c0 22.613333 16.213333 41.386667 37.12 44.8l221.44 31.573333 0 107.946667c0 27.733333 17.493333 37.12 39.253333 21.333333l240.64-176.64c21.76-16.213333 21.76-41.813333 0-57.6L297.813333 498.346667zM1243.306667 659.2l-221.866667-31.146667 0-108.373333c0-27.733333-17.493333-37.12-39.253333-21.333333l-240.64 176.64c-21.76 16.213333-21.76 42.24 0 58.026667l240.64 176.64c21.76 15.786667 39.253333 6.4 39.253333-21.333333l0-107.946667 221.44-31.573333C1263.786667 745.386667 1280 726.613333 1280 704 1280 681.386667 1264.213333 663.04 1243.306667 659.2zM659.626667 64c-23.552 0-42.666667 19.114667-42.666667 42.666667l0 92.586667c0 23.552 19.114667 42.666667 42.666667 42.666667 23.594667 0 42.666667-19.114667 42.666667-42.666667L702.293333 106.666667C702.293333 83.114667 683.221333 64 659.626667 64zM842.666667 381.013333c11.008 0 22.058667-4.266667 30.378667-12.714667l91.306667-92.586667c16.554667-16.768 16.384-43.776-0.426667-60.330667-16.853333-16.512-43.776-16.384-60.330667 0.426667l-91.306667 92.586667c-16.554667 16.768-16.384 43.776 0.426667 60.330667C821.034667 376.917333 831.829333 381.013333 842.666667 381.013333zM446.72 368.384c8.362667 8.448 19.328 12.629333 30.293333 12.629333 10.837333 0 21.717333-4.138667 30.037333-12.373333 16.768-16.597333 16.896-43.605333 0.298667-60.330667l-89.6-90.453333C401.109333 201.088 374.144 201.088 357.376 217.6 340.650667 234.197333 340.522667 261.205333 357.12 277.930667L446.72 368.384z" /></svg>
